# xmcd
#
# Track frame offsets:
#  150
#  16009
#  32188
#  48318
#  68685
#  83890
#  95624
#  105043
#  128590
#  146063
#  159290
#  181860
#  201986
#  213019
#  227600
#  242462
#  259982
#
# Disc length: 3768 seconds
#
# Revision: 0
# Processed by: cddbd v1.5.1PL2 Copyright (c) Steve Scherf et al.
# Submitted via: Collectorz.com_Music_Collector 6.10
#
DISCID=d10eb611
DTITLE=Toyota National Country Music Muster - Toyota Muster Rural Aid Appeal volumes 25,26,27,28 (2004) [CD4)
DYEAR=2004
DGENRE=
TTITLE0=Shannon Noll - The Way That I Feel
TTITLE1=Col Finey - My PLace
TTITLE2=Sovereign - It's My Town
TTITLE3=Eric Bogle - From The Cradle To The GRave
TTITLE4=KIm MacKenzie - Waste Of Time
TTITLE5=Matt Zarb - Dr Dollar
TTITLE6=Miss Conway's National JUnk Band - Aussie Country
TTITLE7=Sweeney Killeen - Working Man
TTITLE8=Steve Gibson - Road To Anywhere
TTITLE9=Sensative New Age Cowpersons - Daddy Wore A Mullet
TTITLE10=Shane Howard - Talk Of The Town
TTITLE11=The Borderers - Land Of Promise
TTITLE12=Tommy Emmanuel - Tall Fiddler
TTITLE13=Women In Docs - I Wanna See
TTITLE14=The Blowflies - Blackleg Miner
TTITLE15=Tanya Self - Never Easy
TTITLE16=Shirley FRiend - Naked Poets
EXTD=
EXTT0=
EXTT1=
EXTT2=
EXTT3=
EXTT4=
EXTT5=
EXTT6=
EXTT7=
EXTT8=
EXTT9=
EXTT10=
EXTT11=
EXTT12=
EXTT13=
EXTT14=
EXTT15=
EXTT16=
PLAYORDER=
